<svg 
 xmlns="http://www.w3.org/2000/svg"
 xmlns:xlink="http://www.w3.org/1999/xlink"
 width="14px" height="16px">
<path fill-rule="evenodd"  fill="rgb(255, 255, 255)"
 d="M13.000,16.000 L1.000,16.000 C0.448,16.000 -0.000,15.552 -0.000,15.000 L-0.000,3.000 C-0.000,2.448 0.448,2.000 1.000,2.000 L4.184,2.000 C4.597,0.837 5.696,-0.000 7.000,-0.000 C8.304,-0.000 9.403,0.837 9.816,2.000 L13.000,2.000 C13.552,2.000 14.000,2.448 14.000,3.000 L14.000,15.000 C14.000,15.552 13.552,16.000 13.000,16.000 ZM7.000,2.000 C6.448,2.000 6.000,2.448 6.000,3.000 C6.000,3.552 6.448,4.000 7.000,4.000 C7.552,4.000 8.000,3.552 8.000,3.000 C8.000,2.448 7.552,2.000 7.000,2.000 ZM10.500,6.000 L3.500,6.000 C3.224,6.000 3.000,6.224 3.000,6.500 C3.000,6.776 3.224,7.000 3.500,7.000 L10.500,7.000 C10.776,7.000 11.000,6.776 11.000,6.500 C11.000,6.224 10.776,6.000 10.500,6.000 ZM10.500,9.000 L3.500,9.000 C3.224,9.000 3.000,9.224 3.000,9.500 C3.000,9.776 3.224,10.000 3.500,10.000 L10.500,10.000 C10.776,10.000 11.000,9.776 11.000,9.500 C11.000,9.224 10.776,9.000 10.500,9.000 Z"/>
</svg>