<svg 
 xmlns="http://www.w3.org/2000/svg"
 xmlns:xlink="http://www.w3.org/1999/xlink"
 width="16px" height="15px">
<path fill-rule="evenodd"  fill="rgb(255, 255, 255)"
 d="M14.998,13.725 L13.657,13.725 C13.766,13.497 13.835,13.257 13.817,13.039 C13.817,13.039 13.699,11.612 11.000,10.490 C9.449,9.846 8.246,9.617 8.715,7.990 C9.587,7.363 10.182,6.129 10.182,4.706 C10.182,2.781 9.096,1.197 7.702,1.001 C8.197,0.380 8.861,-0.000 9.591,-0.000 C11.122,-0.000 12.363,1.668 12.363,3.725 C12.363,5.150 11.768,6.387 10.894,7.014 C10.428,8.637 11.631,8.866 13.180,9.510 C15.879,10.632 15.997,12.059 15.997,12.059 C16.057,12.772 15.191,13.725 14.998,13.725 ZM9.183,5.000 C9.183,6.424 8.588,7.662 7.714,8.288 C7.248,9.912 8.451,10.140 10.000,10.784 C12.699,11.906 12.817,13.333 12.817,13.333 C12.877,14.046 12.011,15.000 11.818,15.000 L1.187,15.000 C0.994,15.000 -0.079,14.405 0.006,13.431 C0.006,13.431 -0.142,12.504 2.186,11.078 C3.336,10.374 5.294,10.441 5.003,8.235 L5.038,8.235 C4.203,7.593 3.640,6.385 3.640,5.000 C3.640,2.942 4.881,1.275 6.411,1.275 C7.942,1.275 9.183,2.942 9.183,5.000 Z"/>
</svg>