<svg 
 xmlns="http://www.w3.org/2000/svg"
 xmlns:xlink="http://www.w3.org/1999/xlink"
 width="16px" height="16px">
<path fill-rule="evenodd"  fill="rgb(255, 255, 255)"
 d="M16.000,11.624 C16.000,11.624 15.859,12.631 15.178,12.950 C14.498,13.270 8.422,15.887 8.422,15.887 C8.422,15.887 8.019,16.143 7.418,15.887 C6.816,15.632 0.936,13.045 0.936,13.045 C0.936,13.045 0.073,12.613 0.023,11.719 C-0.027,10.824 0.023,4.234 0.023,4.234 C0.023,4.234 0.202,3.384 0.845,3.097 C1.487,2.810 7.418,0.065 7.418,0.065 C7.418,0.065 7.955,-0.084 8.422,0.065 C8.890,0.214 11.161,1.297 11.161,1.297 L3.492,5.087 L3.401,7.550 L4.770,8.118 L4.862,5.750 L12.531,1.960 L14.996,3.002 C14.996,3.002 16.009,3.695 16.000,4.329 C15.991,4.962 16.000,11.624 16.000,11.624 ZM10.340,7.645 L9.335,9.824 L9.883,9.729 L9.974,12.477 L10.887,12.003 L10.887,9.255 L11.435,8.876 L10.340,7.645 ZM13.626,5.939 L12.531,8.308 L13.078,8.213 L13.170,10.961 L14.174,10.487 L14.174,7.645 L14.722,7.266 L13.626,5.939 ZM15.178,10.771 L8.970,13.424 L9.061,13.898 L15.178,11.245 L15.178,10.771 Z"/>
</svg>