<svg 
 xmlns="http://www.w3.org/2000/svg"
 xmlns:xlink="http://www.w3.org/1999/xlink"
 width="16px" height="17px">
<path fill-rule="evenodd"  fill="rgb(255, 255, 255)"
 d="M8.006,0.487 L16.003,8.505 L0.008,8.505 L8.006,0.487 Z"/>
<path fill-rule="evenodd"  fill="rgb(255, 255, 255)"
 d="M12.000,17.000 L10.000,17.000 L10.000,14.000 C10.000,13.448 9.552,13.000 9.000,13.000 L7.000,13.000 C6.448,13.000 6.000,13.448 6.000,14.000 L6.000,17.000 L4.000,17.000 C2.895,17.000 2.000,16.105 2.000,15.000 L2.000,9.000 C2.000,7.895 2.895,7.000 4.000,7.000 L12.000,7.000 C13.105,7.000 14.000,7.895 14.000,9.000 L14.000,15.000 C14.000,16.105 13.105,17.000 12.000,17.000 Z"/>
</svg>