<svg 
 xmlns="http://www.w3.org/2000/svg"
 xmlns:xlink="http://www.w3.org/1999/xlink"
 width="14px" height="16px">
<path fill-rule="evenodd"  fill="rgb(255, 255, 255)"
 d="M13.000,16.000 L1.000,16.000 C0.448,16.000 -0.000,15.552 -0.000,15.000 L-0.000,1.000 C-0.000,0.448 0.448,-0.000 1.000,-0.000 L13.000,-0.000 C13.552,-0.000 14.000,0.448 14.000,1.000 L14.000,15.000 C14.000,15.552 13.552,16.000 13.000,16.000 ZM11.000,3.000 C11.000,5.209 9.209,7.000 7.000,7.000 C4.791,7.000 3.000,5.209 3.000,3.000 L2.000,3.000 C2.000,5.761 4.239,8.000 7.000,8.000 C9.761,8.000 12.000,5.761 12.000,3.000 L11.000,3.000 Z"/>
</svg>