<svg 
 xmlns="http://www.w3.org/2000/svg"
 xmlns:xlink="http://www.w3.org/1999/xlink"
 width="14px" height="16px">
<path fill-rule="evenodd"  fill="rgb(255, 255, 255)"
 d="M9.000,16.000 L5.000,16.000 L-0.000,11.000 L-0.000,3.000 L5.000,-0.000 L9.000,-0.000 L14.000,3.000 L14.000,11.000 L9.000,16.000 ZM4.353,11.390 C4.347,11.523 4.333,11.673 4.313,11.840 L5.013,11.840 L5.013,11.330 L10.023,11.330 L10.023,11.700 L10.723,11.700 C10.703,11.533 10.690,11.383 10.683,11.250 C10.677,11.116 10.673,10.963 10.673,10.790 L10.673,9.600 C10.673,9.453 10.673,9.345 10.673,9.275 C10.673,9.205 10.680,9.133 10.693,9.060 C10.560,9.060 10.407,9.061 10.233,9.065 C10.060,9.068 9.848,9.071 9.598,9.075 C9.348,9.078 9.052,9.080 8.708,9.080 C8.365,9.080 7.960,9.080 7.493,9.080 C7.027,9.080 6.625,9.080 6.288,9.080 C5.952,9.080 5.658,9.078 5.408,9.075 C5.158,9.071 4.947,9.068 4.773,9.065 C4.600,9.061 4.447,9.060 4.313,9.060 C4.333,9.140 4.347,9.218 4.353,9.295 C4.360,9.371 4.363,9.473 4.363,9.600 L4.363,10.940 C4.363,11.106 4.360,11.256 4.353,11.390 ZM7.963,3.070 C7.723,2.883 7.470,2.706 7.203,2.540 L6.813,2.970 C6.920,3.036 7.035,3.116 7.158,3.210 C7.282,3.303 7.403,3.401 7.523,3.505 C7.643,3.608 7.753,3.711 7.853,3.815 C7.953,3.918 8.040,4.010 8.113,4.090 L8.593,3.610 C8.413,3.436 8.203,3.256 7.963,3.070 ZM11.403,4.120 C11.270,4.133 11.107,4.145 10.913,4.155 C10.720,4.165 10.487,4.173 10.213,4.180 C9.940,4.186 9.622,4.191 9.258,4.195 C8.895,4.198 8.480,4.200 8.013,4.200 L4.823,4.200 C4.943,4.000 5.045,3.836 5.128,3.710 C5.212,3.583 5.280,3.483 5.333,3.410 C5.387,3.336 5.430,3.285 5.463,3.255 C5.497,3.225 5.530,3.200 5.563,3.180 C5.677,3.106 5.737,3.048 5.743,3.005 C5.750,2.961 5.707,2.913 5.613,2.860 C5.493,2.793 5.383,2.730 5.283,2.670 C5.183,2.610 5.077,2.540 4.963,2.460 C4.857,2.826 4.708,3.198 4.518,3.575 C4.328,3.951 4.117,4.310 3.883,4.650 C3.650,4.990 3.403,5.298 3.143,5.575 C2.883,5.851 2.633,6.073 2.393,6.240 C2.553,6.273 2.675,6.318 2.758,6.375 C2.842,6.431 2.933,6.533 3.033,6.680 C3.260,6.413 3.470,6.153 3.663,5.900 C3.857,5.646 4.037,5.400 4.203,5.160 L4.203,7.180 C4.203,7.440 4.195,7.698 4.178,7.955 C4.162,8.211 4.130,8.480 4.083,8.760 L4.783,8.760 L4.783,8.270 L8.003,8.270 C8.497,8.270 8.927,8.271 9.293,8.275 C9.660,8.278 9.978,8.283 10.248,8.290 C10.518,8.296 10.743,8.305 10.923,8.315 C11.103,8.325 11.253,8.336 11.373,8.350 L11.373,7.790 C11.253,7.803 11.105,7.815 10.928,7.825 C10.752,7.835 10.533,7.843 10.273,7.850 C10.013,7.856 9.705,7.861 9.348,7.865 C8.992,7.868 8.577,7.870 8.103,7.870 L8.103,7.060 C8.550,7.060 8.923,7.061 9.223,7.065 C9.523,7.068 9.775,7.073 9.978,7.080 C10.182,7.086 10.352,7.095 10.488,7.105 C10.625,7.115 10.753,7.126 10.873,7.140 L10.873,6.560 C10.753,6.573 10.625,6.585 10.488,6.595 C10.352,6.605 10.182,6.613 9.978,6.620 C9.775,6.626 9.523,6.631 9.223,6.635 C8.923,6.638 8.550,6.640 8.103,6.640 L8.103,5.880 C8.557,5.880 8.933,5.881 9.233,5.885 C9.533,5.888 9.785,5.893 9.988,5.900 C10.192,5.906 10.360,5.915 10.493,5.925 C10.627,5.935 10.753,5.946 10.873,5.960 L10.873,5.380 C10.753,5.400 10.627,5.415 10.493,5.425 C10.360,5.435 10.192,5.441 9.988,5.445 C9.785,5.448 9.533,5.451 9.233,5.455 C8.933,5.458 8.557,5.460 8.103,5.460 L8.103,4.630 C8.563,4.630 8.970,4.631 9.323,4.635 C9.677,4.638 9.985,4.643 10.248,4.650 C10.512,4.656 10.737,4.665 10.923,4.675 C11.110,4.685 11.270,4.696 11.403,4.710 L11.403,4.120 ZM4.783,7.060 L7.503,7.060 L7.503,7.870 L4.783,7.870 L4.783,7.060 ZM4.783,5.880 L7.503,5.880 L7.503,6.640 L4.783,6.640 L4.783,5.880 ZM4.783,4.630 L7.503,4.630 L7.503,5.460 L4.783,5.460 L4.783,4.630 ZM10.023,10.840 L5.013,10.840 L5.013,9.570 L10.023,9.570 L10.023,10.840 Z"/>
</svg>