<svg 
 xmlns="http://www.w3.org/2000/svg"
 xmlns:xlink="http://www.w3.org/1999/xlink"
 width="16px" height="18px">
<path fill-rule="evenodd"  fill="rgb(255, 255, 255)"
 d="M14.323,8.674 C14.284,8.861 14.210,9.042 14.064,9.188 L7.551,15.701 C7.151,16.101 6.503,16.101 6.104,15.701 L0.314,9.911 C-0.085,9.512 -0.085,8.864 0.314,8.464 L6.827,1.951 C6.973,1.805 7.154,1.731 7.341,1.692 C7.383,1.306 7.698,1.002 8.094,1.002 L14.245,1.002 C14.669,1.002 15.014,1.346 15.014,1.770 L15.014,7.921 C15.014,8.317 14.709,8.632 14.323,8.674 ZM11.893,4.122 C11.094,3.322 9.798,3.322 8.999,4.122 C8.199,4.921 8.199,6.217 8.999,7.017 C9.798,7.816 11.094,7.816 11.893,7.017 C12.693,6.217 12.693,4.921 11.893,4.122 Z"/>
<path fill-rule="evenodd"  fill="rgb(255, 255, 255)"
 d="M9.085,2.002 L10.052,1.035 C10.352,0.735 10.839,0.735 11.139,1.035 L12.105,2.002 L9.085,2.002 ZM10.678,4.913 C11.378,4.755 12.136,4.962 12.679,5.538 C13.534,6.444 13.534,7.913 12.679,8.819 C11.825,9.725 10.439,9.725 9.585,8.819 C9.536,8.767 9.500,8.707 9.456,8.651 C9.782,8.870 10.173,8.998 10.595,8.998 C11.726,8.998 12.642,8.082 12.642,6.951 C12.642,5.849 11.769,4.957 10.678,4.913 ZM15.000,11.279 C15.155,11.114 15.234,10.909 15.277,10.697 C15.444,10.678 15.590,10.598 15.712,10.491 L15.712,16.162 C15.712,16.727 15.254,17.186 14.689,17.186 L9.429,17.186 L15.000,11.279 Z"/>
</svg>