<svg 
 xmlns="http://www.w3.org/2000/svg"
 xmlns:xlink="http://www.w3.org/1999/xlink"
 width="16px" height="16px">
<path fill-rule="evenodd"  fill="rgb(255, 255, 255)"
 d="M11.617,15.918 L4.434,16.000 C4.434,16.000 -1.580,15.236 0.398,12.164 C-0.101,8.798 2.596,4.086 4.757,4.492 C4.757,4.492 7.577,6.242 11.375,4.492 C12.909,3.785 16.356,8.662 15.571,12.164 C15.625,12.674 17.845,14.782 11.617,15.918 ZM7.985,6.695 C5.845,6.695 4.111,8.449 4.111,10.613 C4.111,12.777 5.845,14.531 7.985,14.531 C10.124,14.531 11.859,12.777 11.859,10.613 C11.859,8.449 10.124,6.695 7.985,6.695 ZM5.563,10.368 L8.066,7.837 L10.568,10.368 L8.066,12.899 L5.563,10.368 ZM8.066,4.573 C4.610,4.560 2.840,1.702 3.304,1.064 C3.929,0.205 5.806,1.064 5.806,1.064 C5.806,1.064 6.812,-0.067 7.985,0.003 C9.158,0.072 10.200,1.032 10.245,1.064 C10.289,1.095 11.967,-0.044 12.827,1.145 C13.340,1.855 10.939,4.584 8.066,4.573 Z"/>
</svg>